HIERARCHY
ROOT Hips
{
  OFFSET 53.8038 91.6517 5.46025
  CHANNELS 6 Xposition Yposition Zposition Zrotation Xrotation Yrotation
  JOINT spine
  {
    OFFSET 0 6.84637 0.3937
    CHANNELS 3 Zrotation Xrotation Yrotation
    JOINT spine1
    {
      OFFSET 0 9.49621 0
      CHANNELS 3 Zrotation Xrotation Yrotation
      JOINT spine2
      {
        OFFSET 0 9.09909 0
        CHANNELS 3 Zrotation Xrotation Yrotation
        JOINT Neck
        {
          OFFSET 0 23.3612 1.11378
          CHANNELS 3 Zrotation Xrotation Yrotation
          JOINT Head
          {
            OFFSET 0 7.05802 0
            CHANNELS 3 Zrotation Xrotation Yrotation
            End Site
            {
              OFFSET 0 17.0844 -5.63419
            }
          }
        }
        JOINT RightShoulder
        {
          OFFSET -3.83136 9.82631 -0.533491
          CHANNELS 3 Zrotation Xrotation Yrotation
          JOINT RightArm
          {
            OFFSET 0 12.8881 0
            CHANNELS 3 Zrotation Xrotation Yrotation
            JOINT RightArmRoll
            {
              OFFSET 0 6.50617 0
              CHANNELS 3 Zrotation Xrotation Yrotation
              JOINT RightForeArm
              {
                OFFSET 0 18.9501 0
                CHANNELS 3 Zrotation Xrotation Yrotation
                JOINT RightForeArmRoll
                {
                  OFFSET 0 7.30093 0
                  CHANNELS 3 Zrotation Xrotation Yrotation
                  JOINT RightHand
                  {
                    OFFSET 0 14.6514 0
                    CHANNELS 3 Zrotation Xrotation Yrotation
                    End Site
                    {
                      OFFSET 0 0 0
                    }
                  }
                }
              }
            }
          }
        }
        JOINT LeftShoulder
        {
          OFFSET 3.83136 9.82631 -0.533491
          CHANNELS 3 Zrotation Xrotation Yrotation
          JOINT LeftArm
          {
            OFFSET 0 12.8881 0
            CHANNELS 3 Zrotation Xrotation Yrotation
            JOINT LeftArmRoll
            {
              OFFSET 0 6.50617 0
              CHANNELS 3 Zrotation Xrotation Yrotation
              JOINT LeftForeArm
              {
                OFFSET 0 18.9501 0
                CHANNELS 3 Zrotation Xrotation Yrotation
                JOINT LeftForeArmRoll
                {
                  OFFSET 0 7.30093 0
                  CHANNELS 3 Zrotation Xrotation Yrotation
                  JOINT LeftHand
                  {
                    OFFSET 0 14.6514 0
                    CHANNELS 3 Zrotation Xrotation Yrotation
                    End Site
                    {
                      OFFSET 0 0 0
                    }
                  }
                }
              }
            }
          }
        }
      }
    }
  }
  JOINT RightUpLeg
  {
    OFFSET -6.06837 -1.11278 -0.933477
    CHANNELS 3 Zrotation Xrotation Yrotation
    JOINT RightUpLegRoll
    {
      OFFSET 0 17.1796 0
      CHANNELS 3 Zrotation Xrotation Yrotation
      JOINT RightLeg
      {
        OFFSET 0 -21.2743 0
        CHANNELS 3 Zrotation Xrotation Yrotation
        JOINT RightLegRoll
        {
          OFFSET 0 21.3439 0
          CHANNELS 3 Zrotation Xrotation Yrotation
          JOINT RightFoot
          {
            OFFSET 0 17.7652 0
            CHANNELS 3 Zrotation Xrotation Yrotation
            JOINT RightToeBase
            {
              OFFSET 0 14.8508 0
              CHANNELS 3 Zrotation Xrotation Yrotation
              End Site
              {
                OFFSET 0.0062947 7.19213 -0.829005
              }
            }
          }
        }
      }
    }
  }
  JOINT LeftUpLeg
  {
    OFFSET 6.06837 -1.11278 -0.933477
    CHANNELS 3 Zrotation Xrotation Yrotation
    JOINT LeftUpLegRoll
    {
      OFFSET 0 17.1797 0
      CHANNELS 3 Zrotation Xrotation Yrotation
      JOINT LeftLeg
      {
        OFFSET 0 21.2742 0
        CHANNELS 3 Zrotation Xrotation Yrotation
        JOINT LeftLegRoll
        {
          OFFSET 0 21.5412 0
          CHANNELS 3 Zrotation Xrotation Yrotation
          JOINT LeftFoot
          {
            OFFSET 0 17.5679 0
            CHANNELS 3 Zrotation Xrotation Yrotation
            JOINT LeftToeBase
            {
              OFFSET 0 14.8508 0
              CHANNELS 3 Zrotation Xrotation Yrotation
              End Site
              {
                OFFSET -0.0282102 7.19213 -0.829005
              }
            }
          }
        }
      }
    }
  }
}
MOTION
Frames: 12
Frame Time: 0.00208333
53.8637 91.6192 6.23406 0.248048 -2.63263 -4.9685 0.284129 -1.63122 -0.134844 0.565119 0.739518 -0.325713 0.569332 2.38454 -0.335316 -9.28112 20.8987 3.88478 6.11778 -6.22207 1.36699 68.8682 6.29367 1.99429 104.259 3.2197 21.0113 -9.97553e-006 -2.50525e-006 -7.73944e-006 5.30103 11.0214 -1.78205 -2.42304e-006 -3.55685e-006 -3 8.02952 -4.95141 0.69766 -73.2745 2.43128 0.539461 -102.527 6.51344 -26.1983 2.039e-010 9.45611e-009 1.84358e-006 -8.90524 6.38544 0.988151 3.04519e-006 -6.30771e-008 3.01181 -8.02903 -4.95148 -0.697684 174.902 0.371954 1.56151 180 7.01542e-015 178.902 177.973 4.8941 179.942 2.78821e-006 1.24602e-006 0.0392681 -18.5146 67.7133 19.3067 8.13649 25.2326 -3.48773 -175.316 -3.22036 0.0420596 4.54188e-006 -4.6773e-006 -1.13792 -1.52745 -3.88083 0.0423523 -3.26904e-006 -1.82194e-007 -0.0330238 18.7726 68.0546 -19.5792 -8.13649 25.2327 3.48774 
53.864 91.6237 6.23477 0.242032 -2.64095 -4.96532 0.284574 -1.62918 -0.135005 0.566042 0.743595 -0.324169 0.570231 2.38861 -0.333789 -9.25094 20.853 3.87146 6.09795 -6.17366 1.36281 68.8556 6.24826 1.97382 104.256 3.19964 21.0989 -9.97553e-006 -2.50525e-006 -7.73944e-006 5.24089 11.0189 -1.778 -2.42304e-006 -3.55685e-006 -3 8.02952 -4.95141 0.69766 -73.2361 2.40508 0.546315 -102.542 6.51829 -26.2817 2.03903e-010 9.45611e-009 1.84358e-006 -8.82741 6.3338 0.977335 3.04519e-006 -6.30771e-008 3.01181 -8.02903 -4.95148 -0.697684 174.911 0.360418 1.55636 180 7.01542e-015 178.902 177.975 4.89409 179.942 2.78821e-006 1.24602e-006 0.0392681 -18.5147 67.7134 19.3068 8.13649 25.2326 -3.48773 -175.308 -3.23003 0.0366892 4.54188e-006 -4.6773e-006 -1.13792 -1.52762 -3.8818 0.0423146 -3.26904e-006 -1.82194e-007 -0.0330238 18.7726 68.0546 -19.5792 -8.13649 25.2327 3.48774 
53.8351 91.6226 6.23909 0.235773 -2.6497 -4.96224 0.28513 -1.62705 -0.135185 0.567187 0.747859 -0.322644 0.571352 2.39288 -0.332284 -9.22172 20.8072 3.85843 6.07863 -6.12546 1.35865 68.8421 6.20329 1.95374 104.255 3.17971 21.187 -9.97553e-006 -2.50525e-006 -7.73944e-006 5.18006 11.0152 -1.77384 -2.42304e-006 -3.55685e-006 -3 8.02952 -4.95141 0.69766 -73.1983 2.3791 0.553133 -102.56 6.52292 -26.3633 2.03885e-010 9.45611e-009 1.84358e-006 -8.75112 6.2828 0.966677 3.04519e-006 -6.30771e-008 3.01181 -8.02903 -4.95148 -0.697684 174.92 0.348397 1.55102 180 7.01542e-015 178.902 177.977 4.89401 179.942 2.78821e-006 1.24602e-006 0.0392681 -18.5148 67.7136 19.3069 8.13649 25.2326 -3.48773 -175.299 -3.24023 0.0311503 4.54188e-006 -4.6773e-006 -1.13792 -1.52779 -3.88279 0.0422769 -3.26904e-006 -1.82194e-007 -0.0330238 18.7727 68.0547 -19.5792 -8.13649 25.2327 3.48774 
53.8405 91.6197 6.2435 0.229344 -2.65875 -4.95923 0.285762 -1.62486 -0.135379 0.568488 0.752254 -0.321131 0.572629 2.39727 -0.330794 -9.19316 20.7614 3.84561 6.05966 -6.07741 1.35452 68.828 6.15863 1.93392 104.255 3.15987 21.2755 -9.97553e-006 -2.50525e-006 -7.73944e-006 5.11877 11.0106 -1.7696 -2.42304e-006 -3.55685e-006 -3 8.02952 -4.95141 0.69766 -73.1609 2.35326 0.559925 -102.578 6.5274 -26.4436 2.03885e-010 9.45611e-009 1.84358e-006 -8.67592 6.23224 0.956131 3.04519e-006 -6.30771e-008 3.01181 -8.02903 -4.95148 -0.697684 174.93 0.336037 1.54556 180 7.01542e-015 178.902 177.979 4.89387 179.942 2.78821e-006 1.24602e-006 0.0392681 -18.5149 67.7137 19.3071 8.13649 25.2326 -3.48773 -175.29 -3.2508 0.0254933 4.54188e-006 -4.6773e-006 -1.13792 -1.52795 -3.8838 0.0422389 -3.26904e-006 -1.82194e-007 -0.0330238 18.7727 68.0547 -19.5793 -8.13649 25.2327 3.48774 
53.8357 91.6222 6.23781 0.222819 -2.66798 -4.95626 0.286439 -1.62262 -0.13558 0.569878 0.756724 -0.319625 0.573995 2.40174 -0.329313 -9.165 20.7156 3.8329 6.0409 -6.02945 1.35041 68.8136 6.11414 1.91426 104.255 3.1401 21.3641 -9.97553e-006 -2.50525e-006 -7.73944e-006 5.0572 11.0055 -1.76531 -2.42304e-006 -3.55685e-006 -3 8.02952 -4.95141 0.69766 -73.1237 2.32751 0.566702 -102.596 6.53177 -26.5233 2.03906e-010 9.45611e-009 1.84358e-006 -8.60135 6.18193 0.94565 3.04519e-006 -6.30771e-008 3.01181 -8.02903 -4.95148 -0.697684 174.939 0.323482 1.54002 180 7.01542e-015 178.902 177.981 4.8937 179.941 2.78821e-006 1.24602e-006 0.0392681 -18.5151 67.7139 19.3072 8.13649 25.2326 -3.48773 -175.281 -3.26158 0.0197689 4.54188e-006 -4.6773e-006 -1.13792 -1.52812 -3.88481 0.0422009 -3.26904e-006 -1.82194e-007 -0.0330238 18.7727 68.0548 -19.5793 -8.13649 25.2327 3.48774 
53.8306 91.6165 6.24472 0.21627 -2.67724 -4.95331 0.287126 -1.62038 -0.135783 0.57129 0.761213 -0.318121 0.575382 2.40623 -0.327834 -9.13695 20.6698 3.82024 6.0222 -5.98151 1.3463 68.799 6.0697 1.89464 104.256 3.12035 21.4527 -9.97553e-006 -2.50525e-006 -7.73944e-006 4.99557 11.0002 -1.76101 -2.42304e-006 -3.55685e-006 -3 8.02952 -4.95141 0.69766 -73.0866 2.30178 0.573476 -102.615 6.53611 -26.6027 2.03908e-010 9.45611e-009 1.84358e-006 -8.52695 6.13169 0.935187 3.04519e-006 -6.30771e-008 3.01181 -8.02903 -4.95148 -0.697684 174.949 0.310879 1.53447 180 7.01542e-015 178.902 177.984 4.89352 179.941 2.78821e-006 1.24602e-006 0.0392681 -18.5153 67.7141 19.3074 8.13649 25.2326 -3.48773 -175.271 -3.2724 0.0140275 4.54188e-006 -4.6773e-006 -1.13792 -1.52828 -3.88582 0.0421629 -3.26904e-006 -1.82194e-007 -0.0330238 18.7728 68.0548 -19.5794 -8.13649 25.2327 3.48774 
53.8412 91.6171 6.25404 0.209771 -2.68642 -4.95033 0.287792 -1.61816 -0.135983 0.572657 0.765665 -0.316614 0.576725 2.41068 -0.326351 -9.10874 20.624 3.80753 6.0034 -5.93353 1.34218 68.7845 6.02517 1.87494 104.256 3.10059 21.5413 -9.97553e-006 -2.50525e-006 -7.73944e-006 4.93408 10.9952 -1.75673 -2.42304e-006 -3.55685e-006 -3 8.02952 -4.95141 0.69766 -73.0494 2.27601 0.580257 -102.633 6.54045 -26.6825 2.03895e-010 9.45611e-009 1.84358e-006 -8.45227 6.08131 0.924695 3.04519e-006 -6.30771e-008 3.01181 -8.02903 -4.95148 -0.697684 174.959 0.298372 1.52895 180 7.01542e-015 178.902 177.986 4.89335 179.941 2.78821e-006 1.24602e-006 0.0392681 -18.5154 67.7143 19.3076 8.13649 25.2326 -3.48773 -175.262 -3.28313 0.00831966 4.54188e-006 -4.6773e-006 -1.13792 -1.52844 -3.88683 0.0421249 -3.26904e-006 -1.82194e-007 -0.0330238 18.7728 68.0549 -19.5794 -8.13649 25.2327 3.48774 
53.8335 91.6181 6.25559 0.203395 -2.69538 -4.9473 0.288403 -1.61598 -0.136172 0.573912 0.770023 -0.315097 0.577957 2.41504 -0.324857 -9.08008 20.5782 3.79469 5.98436 -5.88543 1.33805 68.7704 5.98041 1.85507 104.256 3.08079 21.6296 -9.97553e-006 -2.50525e-006 -7.73944e-006 4.87292 10.9909 -1.75251 -2.42304e-006 -3.55685e-006 -3 8.02952 -4.95141 0.69766 -73.0118 2.25013 0.587056 -102.651 6.54487 -26.7632 2.03887e-010 9.45611e-009 1.84358e-006 -8.37684 6.03062 0.914129 3.04519e-006 -6.30771e-008 3.01181 -8.02903 -4.95148 -0.697684 174.968 0.286109 1.52352 180 7.01542e-015 178.902 177.988 4.89323 179.941 2.78821e-006 1.24602e-006 0.0392681 -18.5156 67.7145 19.3078 8.13649 25.2326 -3.48773 -175.253 -3.29359 0.00269592 4.54188e-006 -4.6773e-006 -1.13792 -1.52861 -3.88783 0.042087 -3.26904e-006 -1.82194e-007 -0.0330238 18.7729 68.055 -19.5795 -8.13649 25.2327 3.48774 
53.8233 91.6185 6.25904 0.197215 -2.70401 -4.94419 0.288925 -1.61388 -0.136346 0.574989 0.77423 -0.313566 0.57901 2.41925 -0.323345 -9.05071 20.5324 3.78164 5.96493 -5.83717 1.3339 68.757 5.9353 1.8349 104.254 3.06091 21.7176 -9.97553e-006 -2.50525e-006 -7.73944e-006 4.8123 10.9875 -1.74838 -2.42304e-006 -3.55685e-006 -3 8.02952 -4.95141 0.69766 -72.9738 2.22408 0.593884 -102.667 6.5494 -26.8453 2.03903e-010 9.45611e-009 1.84358e-006 -8.30021 5.97943 0.903441 3.04519e-006 -6.30771e-008 3.01181 -8.02903 -4.95148 -0.697684 174.978 0.274233 1.51825 180 7.01542e-015 178.902 177.99 4.89317 179.941 2.78821e-006 1.24602e-006 0.0392681 -18.5157 67.7146 19.3079 8.13649 25.2326 -3.48773 -175.244 -3.30363 -0.00279317 4.54188e-006 -4.6773e-006 -1.13792 -1.52878 -3.88882 0.0420493 -3.26904e-006 -1.82194e-007 -0.0330238 18.7729 68.055 -19.5795 -8.13649 25.2327 3.48774 
53.8226 91.6143 6.26317 0.191304 -2.71216 -4.94097 0.289326 -1.61188 -0.136499 0.575821 0.778232 -0.312015 0.579818 2.42325 -0.321809 -9.02035 20.4867 3.76829 5.94496 -5.78866 1.32972 68.7446 5.88969 1.81432 104.251 3.04091 21.805 -9.97553e-006 -2.50525e-006 -7.73944e-006 4.75243 10.9856 -1.74439 -2.42304e-006 -3.55685e-006 -3 8.02952 -4.95141 0.69766 -72.9351 2.1978 0.600751 -102.682 6.55411 -26.9294 2.03898e-010 9.45611e-009 1.84358e-006 -8.22191 5.92753 0.892586 3.04519e-006 -6.30771e-008 3.01181 -8.02903 -4.95148 -0.697684 174.987 0.262891 1.51318 180 7.01542e-015 178.902 177.992 4.89322 179.941 2.78821e-006 1.24602e-006 0.0392681 -18.5157 67.7147 19.3079 8.13649 25.2326 -3.48773 -175.236 -3.3131 -0.00809705 4.54188e-006 -4.6773e-006 -1.13792 -1.52895 -3.88978 0.0420117 -3.26904e-006 -1.82194e-007 -0.0330238 18.7729 68.055 -19.5795 -8.13649 25.2327 3.48774 
53.8313 91.6135 6.26128 0.185736 -2.71972 -4.93761 0.289574 -1.61001 -0.136625 0.576341 0.781972 -0.310439 0.580313 2.42699 -0.320243 -8.98871 20.4411 3.75457 5.92431 -5.73986 1.3255 68.7333 5.84346 1.79323 104.246 3.02078 21.8917 -9.97553e-006 -2.50525e-006 -7.73944e-006 4.69351 10.9854 -1.74056 -2.42304e-006 -3.55685e-006 -3 8.02952 -4.95141 0.69766 -72.8956 2.17123 0.607668 -102.695 6.55905 -27.016 2.03905e-010 9.45611e-009 1.84358e-006 -8.14151 5.87475 0.881516 3.04519e-006 -6.30771e-008 3.01181 -8.02903 -4.95148 -0.697684 174.995 0.252229 1.50836 180 7.01542e-015 178.902 177.994 4.89334 179.94 2.78821e-006 1.24602e-006 0.0392681 -18.5157 67.7147 19.3079 8.13649 25.2326 -3.48773 -175.228 -3.32183 -0.0131652 4.54188e-006 -4.6773e-006 -1.13792 -1.52914 -3.89072 0.0419745 -3.26904e-006 -1.82194e-007 -0.0330238 18.7729 68.055 -19.5795 -8.13649 25.2327 3.48774 
53.8256 91.6184 6.26655 0.180583 -2.72655 -4.93407 0.289634 -1.6083 -0.136718 0.576482 0.785393 -0.308833 0.58043 2.43041 -0.318639 -8.95552 20.3955 3.74038 5.90282 -5.69068 1.32123 68.7234 5.79646 1.77151 104.238 3.00046 21.9776 -9.97553e-006 -2.50525e-006 -7.73944e-006 4.63573 10.9874 -1.73692 -2.42304e-006 -3.55685e-006 -3 8.02952 -4.95141 0.69766 -72.8551 2.1443 0.614647 -102.706 6.56427 -27.1057 2.03894e-010 9.4561e-009 1.84358e-006 -8.05852 5.82089 0.870185 3.04519e-006 -6.30771e-008 3.01181 -8.02903 -4.95148 -0.697684 175.003 0.242391 1.50387 180 7.01542e-015 178.902 177.996 4.89361 179.94 2.78821e-006 1.24602e-006 0.0392681 -18.5157 67.7147 19.3079 8.13649 25.2326 -3.48773 -175.22 -3.32967 -0.017947 4.54188e-006 -4.6773e-006 -1.13792 -1.52933 -3.89162 0.0419375 -3.26904e-006 -1.82194e-007 -0.0330238 18.7729 68.055 -19.5795 -8.13649 25.2327 3.48774 
